<svg width="169" height="48" viewBox="0 0 169 48" fill="none" xmlns="http://www.w3.org/2000/svg">
<path d="M43.1423 20.2973C42.2803 19.7292 41.2214 19.3903 40.0838 19.3903C39.953 19.3903 39.8236 19.3945 39.6956 19.403L39.7125 19.4016C39.0853 19.403 38.4722 19.4592 37.8759 19.5633L37.9406 19.5534C37.6102 17.6451 36.4992 16.0448 34.9566 15.0661L34.9298 15.0506L34.3266 14.7019L33.93 15.2756C33.4575 15.9956 33.0877 16.8337 32.8669 17.7295L32.8556 17.7844C32.7305 18.24 32.6588 18.7631 32.6588 19.3031C32.6588 20.4717 32.9963 21.5601 33.5784 22.4784L33.5644 22.4545C32.6686 22.875 31.6223 23.1408 30.5213 23.1914H30.503H2.75906C2.03344 23.1928 1.44563 23.7792 1.44281 24.5034C1.44141 24.5822 1.44141 24.6764 1.44141 24.7706C1.44141 27.233 1.88719 29.5912 2.70281 31.7695L2.65781 31.6317C3.4425 33.9281 4.92469 35.8153 6.84844 37.0894L6.88781 37.1133C9.34031 38.3831 12.2428 39.127 15.3183 39.127C15.6094 39.127 15.8977 39.12 16.1859 39.1073L16.1452 39.1087C16.1705 39.1087 16.2 39.1087 16.2295 39.1087C18.0183 39.1087 19.7663 38.9386 21.4608 38.6137L21.2878 38.6419C23.812 38.1694 26.062 37.3214 28.1011 36.1486L27.997 36.2034C29.7647 35.1698 31.275 33.9239 32.5603 32.4741L32.5772 32.4544C34.4405 30.2606 35.9564 27.6998 36.9998 24.9098L37.0575 24.7341H37.4456C37.523 24.7369 37.613 24.7397 37.703 24.7397C39.427 24.7397 40.9936 24.0633 42.1509 22.9608L42.1481 22.9636C42.6783 22.4601 43.0988 21.8484 43.3758 21.1622L43.3884 21.1284L43.56 20.6236L43.1423 20.2973ZM5.32969 22.3814H9.05062C9.22922 22.38 9.37406 22.2351 9.37406 22.0566V18.7448C9.37406 18.5662 9.22922 18.42 9.05062 18.4186H5.32969C5.15109 18.42 5.00625 18.5648 5.00625 18.7434V22.0566C5.00625 22.2351 5.15109 22.3814 5.32969 22.3814ZM10.4541 22.3814H14.1722C14.3508 22.3814 14.497 22.2366 14.497 22.0566V18.7448C14.497 18.5662 14.3522 18.42 14.1736 18.4186H10.4527C10.2727 18.4186 10.1264 18.5648 10.1264 18.7448V22.0566C10.1278 22.2366 10.2741 22.3814 10.4541 22.3814ZM15.6544 22.3814H19.3753C19.5539 22.38 19.6988 22.2351 19.6988 22.0566V18.7448C19.6988 18.5662 19.5539 18.42 19.3753 18.4186H15.6544C15.4758 18.42 15.3309 18.5648 15.3309 18.7434V22.0566C15.3309 22.2351 15.4758 22.3814 15.6558 22.3814H15.6544ZM20.7956 22.3814H24.5123C24.6923 22.3814 24.8372 22.2366 24.8386 22.0566V18.7448C24.8386 18.5648 24.6923 18.4186 24.5123 18.4186H20.7956C20.617 18.4186 20.4708 18.5634 20.4708 18.7434V22.0566C20.4708 22.2351 20.6156 22.3814 20.7942 22.3814C20.7942 22.3814 20.7942 22.3814 20.7956 22.3814ZM10.4541 17.617H14.1722C14.3522 17.6156 14.497 17.4708 14.497 17.2908V13.9791C14.497 13.8005 14.3522 13.6542 14.1722 13.6542H10.4541C10.2741 13.6542 10.1292 13.7991 10.1278 13.9791V17.2908C10.1292 17.4708 10.2741 17.6156 10.4541 17.617ZM15.6544 17.617H19.3753C19.5539 17.6156 19.6988 17.4694 19.6988 17.2908V13.9791C19.6988 13.8005 19.5539 13.6542 19.3739 13.6542H15.6572C15.4786 13.6542 15.3323 13.7991 15.3323 13.9791V17.2908C15.3338 17.4708 15.4772 17.6156 15.6572 17.617H15.6544ZM20.7956 17.617H24.5123C24.6923 17.6156 24.8372 17.4708 24.8386 17.2908V13.9791C24.8372 13.7991 24.6923 13.6542 24.5123 13.6542H20.7956C20.617 13.6542 20.4708 13.7991 20.4708 13.9791V17.2908C20.4708 17.4708 20.6156 17.6156 20.7956 17.617ZM20.7956 12.8526H24.5123C24.6923 12.8526 24.8386 12.7064 24.8386 12.5264V9.21327C24.8372 9.03327 24.6923 8.88843 24.5123 8.88843H20.7956C20.617 8.88843 20.4708 9.03327 20.4708 9.21327V12.5264C20.4708 12.705 20.6156 12.8512 20.7942 12.8512C20.7942 12.8512 20.7942 12.8512 20.7956 12.8512V12.8526ZM25.9805 22.3814H29.6986C29.8786 22.3814 30.0234 22.2366 30.0248 22.0566V18.7448C30.0248 18.5648 29.8786 18.4186 29.6986 18.4186H25.9805C25.8005 18.4186 25.6556 18.5634 25.6556 18.7434V22.0566C25.6556 22.2351 25.8005 22.3814 25.9805 22.3814Z" fill="#939093"/>
<path d="M65.0316 12.664C67.3783 12.664 69.437 13.1227 71.2076 14.04C72.9996 14.9573 74.3756 16.2693 75.3356 17.976C76.317 19.6613 76.8076 21.624 76.8076 23.864C76.8076 26.104 76.317 28.0667 75.3356 29.752C74.3756 31.416 72.9996 32.7067 71.2076 33.624C69.437 34.5413 67.3783 35 65.0316 35H57.2236V12.664H65.0316ZM64.8716 31.192C67.2183 31.192 69.0316 30.552 70.3116 29.272C71.5916 27.992 72.2316 26.1893 72.2316 23.864C72.2316 21.5387 71.5916 19.7253 70.3116 18.424C69.0316 17.1013 67.2183 16.44 64.8716 16.44H61.7036V31.192H64.8716ZM88.0331 35.288C86.3265 35.288 84.7905 34.9147 83.4251 34.168C82.0598 33.4 80.9825 32.3227 80.1931 30.936C79.4251 29.5493 79.0411 27.9493 79.0411 26.136C79.0411 24.3227 79.4358 22.7227 80.2251 21.336C81.0358 19.9493 82.1345 18.8827 83.5211 18.136C84.9078 17.368 86.4545 16.984 88.1611 16.984C89.8678 16.984 91.4145 17.368 92.8011 18.136C94.1878 18.8827 95.2758 19.9493 96.0651 21.336C96.8758 22.7227 97.2811 24.3227 97.2811 26.136C97.2811 27.9493 96.8651 29.5493 96.0331 30.936C95.2225 32.3227 94.1131 33.4 92.7051 34.168C91.3185 34.9147 89.7611 35.288 88.0331 35.288ZM88.0331 31.384C88.8438 31.384 89.6011 31.192 90.3051 30.808C91.0305 30.4027 91.6065 29.8053 92.0331 29.016C92.4598 28.2267 92.6731 27.2667 92.6731 26.136C92.6731 24.4507 92.2251 23.16 91.3291 22.264C90.4545 21.3467 89.3771 20.888 88.0971 20.888C86.8171 20.888 85.7398 21.3467 84.8651 22.264C84.0118 23.16 83.5851 24.4507 83.5851 26.136C83.5851 27.8213 84.0011 29.1227 84.8331 30.04C85.6865 30.936 86.7531 31.384 88.0331 31.384ZM99.4154 26.136C99.4154 24.3013 99.7887 22.7013 100.535 21.336C101.282 19.9493 102.317 18.8827 103.639 18.136C104.962 17.368 106.477 16.984 108.183 16.984C110.381 16.984 112.194 17.5387 113.623 18.648C115.074 19.736 116.045 21.272 116.535 23.256H111.703C111.447 22.488 111.01 21.8907 110.391 21.464C109.794 21.016 109.047 20.792 108.151 20.792C106.871 20.792 105.858 21.2613 105.111 22.2C104.365 23.1173 103.991 24.4293 103.991 26.136C103.991 27.8213 104.365 29.1333 105.111 30.072C105.858 30.9893 106.871 31.448 108.151 31.448C109.965 31.448 111.149 30.6373 111.703 29.016H116.535C116.045 30.936 115.074 32.4613 113.623 33.592C112.173 34.7227 110.359 35.288 108.183 35.288C106.477 35.288 104.962 34.9147 103.639 34.168C102.317 33.4 101.282 32.3333 100.535 30.968C99.7887 29.5813 99.4154 27.9707 99.4154 26.136ZM130.313 35L124.297 27.448V35H119.817V11.32H124.297V24.792L130.249 17.272H136.073L128.265 26.168L136.137 35H130.313ZM154.985 25.752C154.985 26.392 154.942 26.968 154.857 27.48H141.897C142.004 28.76 142.452 29.7627 143.241 30.488C144.03 31.2133 145.001 31.576 146.153 31.576C147.817 31.576 149.001 30.8613 149.705 29.432H154.537C154.025 31.1387 153.044 32.5467 151.593 33.656C150.142 34.744 148.361 35.288 146.249 35.288C144.542 35.288 143.006 34.9147 141.641 34.168C140.297 33.4 139.241 32.3227 138.473 30.936C137.726 29.5493 137.353 27.9493 137.353 26.136C137.353 24.3013 137.726 22.6907 138.473 21.304C139.22 19.9173 140.265 18.8507 141.609 18.104C142.953 17.3573 144.5 16.984 146.249 16.984C147.934 16.984 149.438 17.3467 150.761 18.072C152.105 18.7973 153.14 19.832 153.865 21.176C154.612 22.4987 154.985 24.024 154.985 25.752ZM150.345 24.472C150.324 23.32 149.908 22.4027 149.097 21.72C148.286 21.016 147.294 20.664 146.121 20.664C145.012 20.664 144.073 21.0053 143.305 21.688C142.558 22.3493 142.1 23.2773 141.929 24.472H150.345ZM162.735 20.024C163.311 19.0853 164.058 18.3493 164.975 17.816C165.914 17.2827 166.98 17.016 168.175 17.016V21.72H166.991C165.583 21.72 164.516 22.0507 163.791 22.712C163.087 23.3733 162.735 24.5253 162.735 26.168V35H158.255V17.272H162.735V20.024Z" fill="#939093"/>
</svg>
