<svg width="136" height="48" viewBox="0 0 136 48" fill="none" xmlns="http://www.w3.org/2000/svg">
<path d="M18.5174 44.9545C26.1126 45.4411 37.776 44.6859 38.0516 41.0915C38.0516 41.0915 37.5215 42.4528 31.7741 43.5356C28.6002 44.108 24.9468 44.4342 21.216 44.4342C18.1602 44.4342 15.1565 44.2148 12.2188 43.7915L12.5549 43.8309C12.5549 43.8295 13.5266 44.6339 18.5174 44.9545ZM26.7187 2.91187C26.7187 2.91187 31.102 7.29515 22.5632 14.0353C15.7162 19.4423 21.0023 22.5262 22.5618 26.0489C18.5652 22.4405 15.6332 19.2694 17.5991 16.3148C20.4876 11.9766 28.4877 9.87421 26.7187 2.91187ZM31.4901 33.8128C39.403 29.7009 35.744 25.748 33.1916 26.2823C32.8415 26.3484 32.5377 26.4328 32.2438 26.5383L32.286 26.5256C32.4534 26.2908 32.684 26.1094 32.9526 26.0067L32.9624 26.0039C38.0151 24.2278 41.9006 31.2422 31.3312 34.0209C31.3959 33.9633 31.4493 33.8944 31.4873 33.817L31.4901 33.8128ZM17.7412 26.1262C17.7412 26.1262 10.0757 27.9473 15.0285 28.6069C16.3616 28.7165 17.9141 28.7784 19.4807 28.7784C21.4832 28.7784 23.4618 28.6758 25.4123 28.4775L25.1676 28.4972C28.3415 28.23 31.5252 27.659 31.5252 27.659C30.7785 27.9853 30.1443 28.3298 29.5438 28.7222L29.5959 28.6912C21.8123 30.7387 6.77524 29.7867 11.1051 27.6928C13.0134 26.7042 15.2718 26.1248 17.6652 26.1248C17.692 26.1248 17.7187 26.1248 17.7454 26.1248L17.7412 26.1262ZM35.3812 38.9442C35.3812 38.9442 36.5751 39.9272 34.0691 40.6851C29.3034 42.1294 14.2326 42.5639 10.049 40.7428C8.5443 40.0875 11.3666 39.1791 12.2526 38.9892C12.6618 38.8851 13.1329 38.8247 13.6166 38.8247C13.649 38.8247 13.6799 38.8247 13.7123 38.8261H13.708C12.0332 37.6462 2.88977 41.1408 9.06321 42.142C25.8988 44.8715 39.7476 40.9116 35.3812 38.9442ZM24.4616 23.0775C24.9032 23.6076 25.1718 24.2981 25.1718 25.0491C25.1718 26.0601 24.6852 26.9587 23.9343 27.5226L23.9259 27.5283C23.9259 27.5283 29.091 24.8606 26.7187 21.5222C24.5024 18.4087 22.8037 16.8619 32.0034 11.5266C32.0034 11.5251 17.5654 15.1308 24.4616 23.0775ZM15.9552 30.9117C15.9552 30.9117 14.1482 32.2491 16.9073 32.5359C18.1152 32.6878 19.5116 32.7736 20.9291 32.7736C23.497 32.7736 25.9987 32.4895 28.4034 31.9509L28.1755 31.9931C28.6593 32.4459 29.2373 32.8059 29.8757 33.0394L29.9109 33.0506C19.9307 35.97 8.81149 33.2784 15.9538 30.9103L15.9552 30.9117ZM16.9663 35.5284C16.9663 35.5284 15.3548 36.4664 18.1138 36.7828C19.1249 36.9333 20.2907 37.0191 21.4776 37.0191C23.3816 37.0191 25.2337 36.7983 27.0098 36.3792L26.8466 36.4116C27.5034 36.8123 28.267 37.1948 29.0643 37.5112L29.1684 37.5478C20.9109 41.0859 10.4835 37.3411 16.9677 35.5284H16.9663Z" fill="#939093"/>
<path d="M70.3414 12.664V28.344C70.3414 30.52 69.712 32.216 68.4534 33.432C67.1947 34.6267 65.5094 35.224 63.3974 35.224C61.264 35.224 59.536 34.6053 58.2134 33.368C56.912 32.1307 56.2614 30.4027 56.2614 28.184H60.7414C60.7627 29.144 60.9867 29.8907 61.4134 30.424C61.8614 30.9573 62.5014 31.224 63.3334 31.224C64.144 31.224 64.7627 30.968 65.1894 30.456C65.616 29.944 65.8294 29.24 65.8294 28.344V12.664H70.3414ZM74.4154 26.072C74.4154 24.28 74.7674 22.6907 75.4714 21.304C76.1967 19.9173 77.1674 18.8507 78.3834 18.104C79.6207 17.3573 80.9967 16.984 82.5114 16.984C83.834 16.984 84.986 17.2507 85.9674 17.784C86.97 18.3173 87.77 18.9893 88.3674 19.8V17.272H92.8794V35H88.3674V32.408C87.7914 33.24 86.9914 33.9333 85.9674 34.488C84.9647 35.0213 83.802 35.288 82.4794 35.288C80.986 35.288 79.6207 34.904 78.3834 34.136C77.1674 33.368 76.1967 32.2907 75.4714 30.904C74.7674 29.496 74.4154 27.8853 74.4154 26.072ZM88.3674 26.136C88.3674 25.048 88.154 24.12 87.7274 23.352C87.3007 22.5627 86.7247 21.9653 85.9994 21.56C85.274 21.1333 84.4954 20.92 83.6634 20.92C82.8314 20.92 82.0634 21.1227 81.3594 21.528C80.6554 21.9333 80.0794 22.5307 79.6314 23.32C79.2047 24.088 78.9914 25.0053 78.9914 26.072C78.9914 27.1387 79.2047 28.0773 79.6314 28.888C80.0794 29.6773 80.6554 30.2853 81.3594 30.712C82.0847 31.1387 82.8527 31.352 83.6634 31.352C84.4954 31.352 85.274 31.1493 85.9994 30.744C86.7247 30.3173 87.3007 29.72 87.7274 28.952C88.154 28.1627 88.3674 27.224 88.3674 26.136ZM104.647 30.872L109.127 17.272H113.895L107.335 35H101.895L95.3669 17.272H100.167L104.647 30.872ZM115.259 26.072C115.259 24.28 115.611 22.6907 116.315 21.304C117.04 19.9173 118.011 18.8507 119.227 18.104C120.464 17.3573 121.84 16.984 123.355 16.984C124.678 16.984 125.83 17.2507 126.811 17.784C127.814 18.3173 128.614 18.9893 129.211 19.8V17.272H133.723V35H129.211V32.408C128.635 33.24 127.835 33.9333 126.811 34.488C125.808 35.0213 124.646 35.288 123.323 35.288C121.83 35.288 120.464 34.904 119.227 34.136C118.011 33.368 117.04 32.2907 116.315 30.904C115.611 29.496 115.259 27.8853 115.259 26.072ZM129.211 26.136C129.211 25.048 128.998 24.12 128.571 23.352C128.144 22.5627 127.568 21.9653 126.843 21.56C126.118 21.1333 125.339 20.92 124.507 20.92C123.675 20.92 122.907 21.1227 122.203 21.528C121.499 21.9333 120.923 22.5307 120.475 23.32C120.048 24.088 119.835 25.0053 119.835 26.072C119.835 27.1387 120.048 28.0773 120.475 28.888C120.923 29.6773 121.499 30.2853 122.203 30.712C122.928 31.1387 123.696 31.352 124.507 31.352C125.339 31.352 126.118 31.1493 126.843 30.744C127.568 30.3173 128.144 29.72 128.571 28.952C128.998 28.1627 129.211 27.224 129.211 26.136Z" fill="#939093"/>
</svg>
