<svg width="346" height="15" viewBox="0 0 346 15" fill="none" xmlns="http://www.w3.org/2000/svg">
<path d="M346 3.66248C342.719 3.74536 339.424 3.93597 336.155 3.89039C313.679 3.57963 291.203 3.04927 268.714 2.9291C246.053 2.80893 223.341 2.8918 200.691 3.23986C180.878 3.54234 161.076 4.1597 141.386 4.96768C124.595 5.65552 107.975 6.84055 91.2577 7.75624C66.565 9.11533 42.5037 11.3279 18.5911 13.7353C15.2599 14.071 12.0525 14.535 8.72136 14.8707C5.6874 15.1773 3.14877 14.9618 1.27886 13.9756C-0.88827 12.8279 -0.392929 12.2188 3.47074 11.879C26.4423 9.87773 49.3519 7.77283 72.4471 5.93726C84.0382 5.01738 95.9757 4.55749 107.79 3.95668C117.214 3.47602 126.663 2.8918 136.148 2.73434C142.105 2.63904 147.665 2.07139 153.423 1.86421C166.364 1.40429 179.379 1.20539 192.357 0.873912C199.862 0.683311 207.341 0.393265 214.845 0.252387C221.557 0.123938 228.307 0.0700696 235.031 0.119791C238.721 0.148796 242.386 0.496852 246.09 0.612868C247.662 0.66259 249.619 0.662582 250.845 0.397399C256.058 -0.725489 260.938 0.948485 266.782 0.372539C273.729 -0.315283 281.915 0.372554 289.555 0.492715C293.568 0.559013 297.605 0.629455 301.58 0.807626C306.843 1.03966 312.045 1.40842 317.295 1.65289C318.929 1.72748 320.738 1.46228 322.335 1.56587C325.146 1.74818 327.821 2.17912 330.644 2.35314C335.734 2.6639 340.873 2.8628 346 3.10725C346 3.28959 345.988 3.47189 345.975 3.6542L346 3.66248Z" fill="#D69FEF"/>
</svg>
