<svg width="122" height="14" viewBox="0 0 122 14" fill="none" xmlns="http://www.w3.org/2000/svg">
<g clip-path="url(#clip0_508_438)">
<path d="M114.233 1.49202C109.507 1.5902 105.697 1.68557 101.888 1.75009C88.847 1.96609 75.7966 2.10073 62.7766 2.39528C43.4578 2.83009 24.5019 3.87082 5.90878 5.39964C2.56302 5.67454 -0.107523 5.21169 0.00333042 4.27475C0.0335632 4.0279 1.48473 3.65761 2.51264 3.58187C11.0584 2.94229 19.6143 2.28308 28.2608 1.76973C46.8237 0.667293 65.689 0.257728 84.625 0.0613649C90.3893 0.00245604 96.2439 -0.0676709 101.938 0.134302C105.838 0.271756 110.383 0.263348 114.243 1.49202H114.233Z" fill="#D69FEF"/>
<path d="M121.99 6.06285C120.416 6.18177 118.862 6.36905 117.258 6.41066C102.638 6.80011 87.9676 7.05874 73.3981 7.56708C62.774 7.93867 52.2405 8.57188 41.7473 9.19615C33.6958 9.67775 25.7654 10.3317 17.7845 10.9085C14.8988 11.1165 13.5671 10.6231 13.0626 9.91259C12.6287 9.29722 11.9123 8.63431 15.4336 8.44405C28.1566 7.75734 40.7989 6.9339 53.542 6.29773C63.5812 5.79829 73.7211 5.40885 83.8612 5.13238C92.0239 4.90944 100.267 4.84106 108.47 4.87971C112.949 4.90051 117.419 5.28697 121.889 5.50993C121.929 5.69425 121.96 5.87854 122 6.05989L121.99 6.06285Z" fill="#D69FEF"/>
<path d="M114.212 9.76282C109.36 9.91232 104.517 10.1127 99.6443 10.1994C79.7273 10.5552 59.9118 11.1592 40.4812 12.5586C35.2234 12.9383 30.1378 13.5154 24.9103 13.925C23.3907 14.0446 20.3718 14.0207 20.1996 13.8562C19.5917 13.3001 19.6424 12.6333 20.0679 12.0472C20.2503 11.7901 21.8407 11.506 22.9348 11.4373C33.9064 10.7675 44.8881 10.1336 55.89 9.51166C59.375 9.31432 62.8903 9.10503 66.4259 9.03326C77.2154 8.81198 88.0141 8.54288 98.8136 8.52194C103.95 8.50999 109.096 9.0123 114.243 9.28143L114.203 9.75984L114.212 9.76282Z" fill="#D69FEF"/>
</g>
<defs>
<clipPath id="clip0_508_438">
<rect width="122" height="14" fill="white"/>
</clipPath>
</defs>
</svg>
