<svg width="131" height="48" viewBox="0 0 131 48" fill="none" xmlns="http://www.w3.org/2000/svg">
<g clip-path="url(#clip0_465_287)">
<path d="M22.4999 11.3438C23.2129 11.3436 23.9242 11.4143 24.6233 11.5547C26.8325 11.9778 28.8641 13.0534 30.4559 14.6427C32.0476 16.2319 33.1264 18.2618 33.553 20.4703L33.9186 22.3688L35.8171 22.7063C37.7346 23.036 39.4573 24.0764 40.6418 25.6198C41.8264 27.1633 42.3857 29.0965 42.2083 31.034C42.0308 32.9716 41.1297 34.771 39.6845 36.0737C38.2393 37.3763 36.3563 38.0865 34.4108 38.0625H10.5468C8.60129 38.0865 6.71825 37.3763 5.27308 36.0737C3.8279 34.771 2.92676 32.9716 2.74934 31.034C2.57191 29.0965 3.13122 27.1633 4.31576 25.6198C5.50031 24.0764 7.22305 23.036 9.14052 22.7063L11.0249 22.3688L11.3905 20.4703C11.8861 17.8917 13.2681 15.5676 15.297 13.9008C17.326 12.234 19.8741 11.3294 22.4999 11.3438ZM22.4999 8.53125C19.227 8.52854 16.0557 9.66749 13.5323 11.7519C11.009 13.8362 9.29176 16.7355 8.67646 19.95C6.08661 20.4189 3.76567 21.8392 2.16949 23.9319C0.573312 26.0246 -0.182744 28.6384 0.049822 31.2601C0.282388 33.8818 1.48677 36.3217 3.42641 38.1008C5.36604 39.8798 7.90076 40.8693 10.5327 40.875H34.439C37.0709 40.8693 39.6056 39.8798 41.5453 38.1008C43.4849 36.3217 44.6893 33.8818 44.9218 31.2601C45.1544 28.6384 44.3983 26.0246 42.8022 23.9319C41.206 21.8392 38.8851 20.4189 36.2952 19.95C35.7655 17.1851 34.4182 14.6427 32.4275 12.6521C30.4369 10.6614 27.8945 9.31404 25.1296 8.78438C24.2626 8.61984 23.3823 8.53511 22.4999 8.53125Z" fill="#939093"/>
</g>
<path d="M71.3103 30.744H62.4143L60.9423 35H56.2383L64.2703 12.632H69.4863L77.5183 35H72.7823L71.3103 30.744ZM70.0943 27.16L66.8623 17.816L63.6302 27.16H70.0943ZM110.377 12.664L104.137 35H98.8565L94.6645 19.096L90.2805 35L85.0325 35.032L79.0165 12.664H83.8165L87.7525 30.008L92.2965 12.664H97.2885L101.577 29.912L105.545 12.664H110.377ZM121.014 35.224C119.456 35.224 118.048 34.9573 116.79 34.424C115.552 33.8907 114.571 33.1227 113.846 32.12C113.12 31.1173 112.747 29.9333 112.726 28.568H117.526C117.59 29.4853 117.91 30.2107 118.486 30.744C119.083 31.2773 119.894 31.544 120.918 31.544C121.963 31.544 122.784 31.2987 123.382 30.808C123.979 30.296 124.278 29.6347 124.278 28.824C124.278 28.1627 124.075 27.6187 123.67 27.192C123.264 26.7653 122.752 26.4347 122.134 26.2C121.536 25.944 120.704 25.6667 119.638 25.368C118.187 24.9413 117.003 24.5253 116.086 24.12C115.19 23.6933 114.411 23.064 113.75 22.232C113.11 21.3787 112.79 20.248 112.79 18.84C112.79 17.5173 113.12 16.3653 113.782 15.384C114.443 14.4027 115.371 13.656 116.566 13.144C117.76 12.6107 119.126 12.344 120.662 12.344C122.966 12.344 124.832 12.9093 126.262 14.04C127.712 15.1493 128.512 16.7067 128.662 18.712H123.734C123.691 17.944 123.36 17.3147 122.742 16.824C122.144 16.312 121.344 16.056 120.342 16.056C119.467 16.056 118.763 16.28 118.23 16.728C117.718 17.176 117.462 17.8267 117.462 18.68C117.462 19.2773 117.654 19.7787 118.038 20.184C118.443 20.568 118.934 20.888 119.51 21.144C120.107 21.3787 120.939 21.656 122.006 21.976C123.456 22.4027 124.64 22.8293 125.558 23.256C126.475 23.6827 127.264 24.3227 127.926 25.176C128.587 26.0293 128.918 27.1493 128.918 28.536C128.918 29.7307 128.608 30.84 127.99 31.864C127.371 32.888 126.464 33.7093 125.27 34.328C124.075 34.9253 122.656 35.224 121.014 35.224Z" fill="#939093"/>
<defs>
<clipPath id="clip0_465_287">
<rect width="45" height="45" fill="white" transform="translate(0 1.5)"/>
</clipPath>
</defs>
</svg>
