<svg width="143" height="48" viewBox="0 0 143 48" fill="none" xmlns="http://www.w3.org/2000/svg">
<g clip-path="url(#clip0_465_246)">
<path d="M7.40723 32.0001H14.3145V39.0001C14.3144 42.8698 11.2141 46.0001 7.40723 46.0001C3.60042 46 0.50001 42.8698 0.5 39.0001C0.5 35.2513 3.40979 32.1961 7.05273 32.0089L7.40723 32.0001Z" fill="#939093" stroke="#18131A"/>
<path d="M7.40723 16.9999H14.3145V30.9999H7.40723C3.60042 30.9998 0.50001 27.8696 0.5 23.9999C0.5 20.251 3.40979 17.1959 7.05273 17.0087L7.40723 16.9999Z" fill="#939093" stroke="#18131A"/>
<path d="M7.40723 2H14.3145V16H7.40723C3.60042 15.9999 0.50001 12.8697 0.5 9C0.5 5.25117 3.40979 2.196 7.05273 2.00879L7.40723 2Z" fill="#939093" stroke="#18131A"/>
<path d="M22.2222 2C26.0291 2 29.1294 5.13028 29.1294 9C29.1294 12.8697 26.0291 16 22.2222 16H15.3149V2H22.2222Z" fill="#939093" stroke="#18131A"/>
<path d="M22.2222 16.9999C26.0291 16.9999 29.1294 20.1301 29.1294 23.9999C29.1294 27.8696 26.0291 30.9999 22.2222 30.9999C18.4154 30.9998 15.315 27.8695 15.3149 23.9999C15.3149 20.1302 18.4154 17 22.2222 16.9999Z" fill="#939093" stroke="#18131A"/>
</g>
<path d="M56.1094 12.664V16.28H46.7974V22.008H53.9334V25.56H46.7974V35H42.3174V12.664H56.1094ZM61.5581 15.16C60.7688 15.16 60.1075 14.9147 59.5741 14.424C59.0621 13.912 58.8061 13.2827 58.8061 12.536C58.8061 11.7893 59.0621 11.1707 59.5741 10.68C60.1075 10.168 60.7688 9.912 61.5581 9.912C62.3475 9.912 62.9981 10.168 63.5101 10.68C64.0435 11.1707 64.3101 11.7893 64.3101 12.536C64.3101 13.2827 64.0435 13.912 63.5101 14.424C62.9981 14.9147 62.3475 15.16 61.5581 15.16ZM63.7661 17.272V35H59.2861V17.272H63.7661ZM75.1364 16.984C76.459 16.984 77.6217 17.2507 78.6244 17.784C79.627 18.296 80.4164 18.968 80.9924 19.8V17.272H85.5044V35.128C85.5044 36.7707 85.1737 38.232 84.5124 39.512C83.851 40.8133 82.859 41.8373 81.5364 42.584C80.2137 43.352 78.6137 43.736 76.7364 43.736C74.219 43.736 72.1497 43.1493 70.5284 41.976C68.9284 40.8027 68.0217 39.2027 67.8084 37.176H72.2564C72.491 37.9867 72.9924 38.6267 73.7604 39.096C74.5497 39.5867 75.499 39.832 76.6084 39.832C77.9097 39.832 78.9657 39.4373 79.7764 38.648C80.587 37.88 80.9924 36.7067 80.9924 35.128V32.376C80.4164 33.208 79.6164 33.9013 78.5924 34.456C77.5897 35.0107 76.4377 35.288 75.1364 35.288C73.643 35.288 72.2777 34.904 71.0404 34.136C69.803 33.368 68.8217 32.2907 68.0964 30.904C67.3924 29.496 67.0404 27.8853 67.0404 26.072C67.0404 24.28 67.3924 22.6907 68.0964 21.304C68.8217 19.9173 69.7924 18.8507 71.0084 18.104C72.2457 17.3573 73.6217 16.984 75.1364 16.984ZM80.9924 26.136C80.9924 25.048 80.779 24.12 80.3524 23.352C79.9257 22.5627 79.3497 21.9653 78.6244 21.56C77.899 21.1333 77.1204 20.92 76.2884 20.92C75.4564 20.92 74.6884 21.1227 73.9844 21.528C73.2804 21.9333 72.7044 22.5307 72.2564 23.32C71.8297 24.088 71.6164 25.0053 71.6164 26.072C71.6164 27.1387 71.8297 28.0773 72.2564 28.888C72.7044 29.6773 73.2804 30.2853 73.9844 30.712C74.7097 31.1387 75.4777 31.352 76.2884 31.352C77.1204 31.352 77.899 31.1493 78.6244 30.744C79.3497 30.3173 79.9257 29.72 80.3524 28.952C80.779 28.1627 80.9924 27.224 80.9924 26.136ZM111.896 17.016C114.072 17.016 115.821 17.688 117.144 19.032C118.488 20.3547 119.16 22.2107 119.16 24.6V35H114.68V25.208C114.68 23.8213 114.328 22.7653 113.624 22.04C112.92 21.2933 111.96 20.92 110.744 20.92C109.528 20.92 108.557 21.2933 107.832 22.04C107.128 22.7653 106.776 23.8213 106.776 25.208V35H102.296V25.208C102.296 23.8213 101.944 22.7653 101.24 22.04C100.536 21.2933 99.5759 20.92 98.3599 20.92C97.1225 20.92 96.1412 21.2933 95.4159 22.04C94.7119 22.7653 94.3599 23.8213 94.3599 25.208V35H89.8799V17.272H94.3599V19.416C94.9359 18.6693 95.6719 18.0827 96.5679 17.656C97.4852 17.2293 98.4879 17.016 99.5759 17.016C100.963 17.016 102.2 17.3147 103.288 17.912C104.376 18.488 105.219 19.32 105.816 20.408C106.392 19.384 107.224 18.5627 108.312 17.944C109.421 17.3253 110.616 17.016 111.896 17.016ZM122.259 26.072C122.259 24.28 122.611 22.6907 123.315 21.304C124.04 19.9173 125.011 18.8507 126.227 18.104C127.464 17.3573 128.84 16.984 130.355 16.984C131.678 16.984 132.83 17.2507 133.811 17.784C134.814 18.3173 135.614 18.9893 136.211 19.8V17.272H140.723V35H136.211V32.408C135.635 33.24 134.835 33.9333 133.811 34.488C132.808 35.0213 131.646 35.288 130.323 35.288C128.83 35.288 127.464 34.904 126.227 34.136C125.011 33.368 124.04 32.2907 123.315 30.904C122.611 29.496 122.259 27.8853 122.259 26.072ZM136.211 26.136C136.211 25.048 135.998 24.12 135.571 23.352C135.144 22.5627 134.568 21.9653 133.843 21.56C133.118 21.1333 132.339 20.92 131.507 20.92C130.675 20.92 129.907 21.1227 129.203 21.528C128.499 21.9333 127.923 22.5307 127.475 23.32C127.048 24.088 126.835 25.0053 126.835 26.072C126.835 27.1387 127.048 28.0773 127.475 28.888C127.923 29.6773 128.499 30.2853 129.203 30.712C129.928 31.1387 130.696 31.352 131.507 31.352C132.339 31.352 133.118 31.1493 133.843 30.744C134.568 30.3173 135.144 29.72 135.571 28.952C135.998 28.1627 136.211 27.224 136.211 26.136Z" fill="#939093"/>
<defs>
<clipPath id="clip0_465_246">
<rect width="30" height="45" fill="white" transform="translate(0 1.5)"/>
</clipPath>
</defs>
</svg>
