<svg width="299" height="41" viewBox="0 0 299 41" fill="none" xmlns="http://www.w3.org/2000/svg">
<g clip-path="url(#clip0_465_74)">
<path d="M298.76 3.83286C284.621 3.49662 270.493 3.11476 256.354 2.84691C248.515 2.69873 240.678 2.76715 232.839 2.69876C225.906 2.63607 218.973 2.51069 212.04 2.41381C210.306 2.39101 208.584 2.35681 206.85 2.37391C195.055 2.51069 183.248 2.53346 171.475 2.84691C162.994 3.06917 154.556 3.69609 146.096 4.11782C141.158 4.36287 136.198 4.51674 131.271 4.81308C127.706 5.02964 124.174 5.41149 120.631 5.73633C118.56 5.92438 116.51 6.18654 114.428 6.31763C110.493 6.56268 106.547 6.73934 102.6 6.94453C101.935 6.97871 101.27 6.9616 100.616 7.01289C97.2798 7.29216 93.9445 7.56572 90.6191 7.87346C87.6541 8.14702 84.7104 8.47754 81.7454 8.75681C77.9518 9.11016 74.1363 9.4179 70.3317 9.76553C67.6391 10.0106 64.9355 10.2386 62.2865 10.5577C57.6752 11.1162 53.0203 11.6177 48.518 12.3586C33.91 14.7636 19.3784 17.2826 4.77049 19.6819C3.89838 19.8244 1.87071 19.4254 1.69628 19.0835C1.33654 18.4053 1.53276 17.4991 2.17595 16.8836C2.63381 16.4448 4.17089 16.251 5.29374 16.063C14.1566 14.5983 22.9976 13.071 31.9368 11.7488C41.6064 10.3183 51.3196 8.93351 61.1309 7.81078C69.6231 6.83624 78.2789 6.26634 86.858 5.50267C95.2308 4.75612 103.57 3.85564 111.986 3.27433C121.264 2.63034 130.605 2.23711 139.937 1.81538C145.312 1.57602 150.817 1.78691 156.083 1.274C162.831 0.618611 169.48 0.721166 176.239 0.783857C181.439 0.83515 186.639 0.0942989 191.861 0.0259105C199.099 -0.0709733 206.349 0.128474 213.598 0.219658C219.18 0.288047 224.75 0.373522 230.332 0.459007C234.812 0.527398 239.293 0.538803 243.762 0.681278C250.435 0.892144 257.106 1.14859 263.767 1.45634C269.795 1.73559 275.802 2.18014 281.83 2.43659C286.06 2.61326 290.322 2.56197 294.563 2.68735C296.057 2.73294 297.517 3.00078 299 3.16605C298.923 3.38831 298.837 3.6106 298.76 3.83286Z" fill="#D69FEF"/>
<path d="M182.132 13.3152C172.025 13.9538 161.896 14.514 151.822 15.2422C131.008 16.7434 110.204 18.2952 89.4222 19.9085C80.3528 20.6143 71.2297 21.2865 62.3466 22.4181C51.1362 23.8522 40.0896 25.6559 29.065 27.4597C21.3291 28.7257 13.7681 30.2662 6.11966 31.6779C3.5629 32.1484 0.984286 32.0644 0.17574 30.5911C-0.578177 29.2018 1.17006 28.4848 3.95628 28.0423C15.8004 26.1545 27.4806 23.981 39.3685 22.1772C48.634 20.7711 58.0962 19.6956 67.5257 18.5921C70.4321 18.2504 73.5679 18.452 76.5182 18.1719C83.2047 17.5445 89.7933 16.609 96.5026 16.1217C102.894 15.6567 109.407 15.6623 115.842 15.3654C122.617 15.0573 129.368 14.5588 136.143 14.2731C150.424 13.6737 164.716 13.1583 178.996 12.6261C180.001 12.5869 181.029 12.6654 182.033 12.6934C182.055 12.9006 182.088 13.1079 182.11 13.3096L182.132 13.3152Z" fill="#D69FEF"/>
<path d="M2.28743 40.1575C7.1486 37.5217 13.3385 36.0758 19.8524 34.9469C28.5917 33.4343 37.2878 31.8382 46.146 30.5424C51.6769 29.7305 57.4563 29.3412 63.1493 28.8852C72.3531 28.1456 81.5784 27.5005 90.7935 26.8276C91.56 26.772 92.3485 26.822 93.3426 27.1168C92.6619 27.3059 92.0138 27.5784 91.2898 27.6729C83.6418 28.6795 75.9831 29.6804 68.313 30.6481C48.8034 33.1006 29.672 36.1314 11.3724 40.4579C7.78595 41.3087 4.63158 41.1198 2.27661 40.1575H2.28743Z" fill="#D69FEF"/>
</g>
<defs>
<clipPath id="clip0_465_74">
<rect width="299" height="41" fill="white"/>
</clipPath>
</defs>
</svg>
