<svg width="139" height="48" viewBox="0 0 139 48" fill="none" xmlns="http://www.w3.org/2000/svg">
<path d="M15.2046 35.1562C12.2639 35.1562 8.73756 36.5587 8.36199 40.4781C8.35074 40.5967 8.36429 40.7163 8.40179 40.8294C8.43929 40.9425 8.49992 41.0466 8.57982 41.135C8.65972 41.2234 8.75713 41.2942 8.86588 41.3429C8.97462 41.3916 9.09231 41.4172 9.21146 41.4179H20.4333C20.5474 41.4186 20.6604 41.3961 20.7655 41.3518C20.8707 41.3076 20.9658 41.2425 21.045 41.1605C21.1243 41.0784 21.1861 40.9812 21.2267 40.8746C21.2673 40.768 21.2859 40.6543 21.2813 40.5403C21.204 38.817 20.4249 35.1562 15.2046 35.1562Z" stroke="#939093" stroke-width="2" stroke-linecap="round" stroke-linejoin="round"/>
<path d="M16.9225 20.7787C15.6569 21.7507 10.0144 27.8194 12.8355 35.4663" stroke="#939093" stroke-width="2" stroke-linecap="round" stroke-linejoin="round"/>
<path d="M29.7954 35.1562C32.7361 35.1562 36.2624 36.5587 36.638 40.4781C36.6493 40.5967 36.6357 40.7163 36.5982 40.8294C36.5607 40.9425 36.5001 41.0466 36.4202 41.135C36.3403 41.2234 36.2429 41.2942 36.1341 41.3429C36.0254 41.3916 35.9077 41.4172 35.7885 41.4179H24.5667C24.4526 41.4186 24.3396 41.3961 24.2345 41.3518C24.1293 41.3076 24.0343 41.2425 23.955 41.1605C23.8757 41.0784 23.8139 40.9812 23.7733 40.8746C23.7327 40.768 23.7141 40.6543 23.7187 40.5403C23.796 38.817 24.5751 35.1562 29.7954 35.1562Z" stroke="#939093" stroke-width="2" stroke-linecap="round" stroke-linejoin="round"/>
<path d="M32.8263 35.6771C35.8121 33.0111 35.4015 28.6228 35.4015 27.4473C38.1141 28.216 40.1177 30.2325 40.6459 29.4817C41.9344 27.6506 33.5966 22.4072 33.4349 19.264C33.2766 16.1899 32.9724 6.58258 22.5 6.58258C12.0275 6.58258 11.7233 16.1899 11.5651 19.2641C11.4033 22.4074 3.0655 27.6508 4.354 29.4819C4.88229 30.2325 6.88582 28.2162 9.59847 27.4475C9.59847 28.623 9.18785 33.0113 12.1736 35.6773" stroke="#939093" stroke-width="2" stroke-linecap="round" stroke-linejoin="round"/>
<path d="M27.4465 20.0929C29.2576 21.5021 34.9855 27.8198 32.1644 35.4663" stroke="#939093" stroke-width="2" stroke-linecap="round" stroke-linejoin="round"/>
<path d="M22.5 24.7904L26.2011 20.7788C25.8395 19.8294 24.5961 18.9703 22.5 18.9703C20.4038 18.9703 19.1605 19.8294 18.7988 20.7788L22.5 24.7904Z" stroke="#939093" stroke-width="2" stroke-linecap="round" stroke-linejoin="round"/>
<path d="M18.7988 20.7787C15.5888 21.2534 15.1367 18.2243 15.1367 16.3707C15.1367 13.8389 16.493 12.2113 18.7988 12.2113C21.1046 12.2113 22.3031 15.3308 22.3031 16.8228C22.3525 17.595 22.1523 18.3627 21.7321 19.0125" stroke="#939093" stroke-width="2" stroke-linecap="round" stroke-linejoin="round"/>
<path d="M25.9879 20.3751C26.6208 20.4202 29.6946 20.0102 29.6946 17.2523C29.6946 14.4943 28.0446 13.7258 25.8291 13.7258C25.0393 13.6846 24.2583 13.9083 23.6101 14.3615C22.9619 14.8146 22.4837 15.4713 22.2512 16.2273" stroke="#939093" stroke-width="2" stroke-linecap="round" stroke-linejoin="round"/>
<path d="M21.2822 40.3889C22.0896 40.5457 22.9195 40.5457 23.7269 40.3889" stroke="#939093" stroke-width="2" stroke-linecap="round" stroke-linejoin="round"/>
<path d="M20.7729 17.7551C21.1613 17.7551 21.4761 17.4403 21.4761 17.052C21.4761 16.6637 21.1613 16.3489 20.7729 16.3489C20.3846 16.3489 20.0698 16.6637 20.0698 17.052C20.0698 17.4403 20.3846 17.7551 20.7729 17.7551Z" fill="#939093"/>
<path d="M23.9529 17.7551C24.3412 17.7551 24.656 17.4403 24.656 17.052C24.656 16.6637 24.3412 16.3489 23.9529 16.3489C23.5646 16.3489 23.2498 16.6637 23.2498 17.052C23.2498 17.4403 23.5646 17.7551 23.9529 17.7551Z" fill="#939093"/>
<path d="M62.0943 31.448H69.4543V35H57.6143V12.664H62.0943V31.448ZM74.5738 15.16C73.7844 15.16 73.1231 14.9147 72.5898 14.424C72.0778 13.912 71.8218 13.2827 71.8218 12.536C71.8218 11.7893 72.0778 11.1707 72.5898 10.68C73.1231 10.168 73.7844 9.912 74.5738 9.912C75.3631 9.912 76.0138 10.168 76.5258 10.68C77.0591 11.1707 77.3258 11.7893 77.3258 12.536C77.3258 13.2827 77.0591 13.912 76.5258 14.424C76.0138 14.9147 75.3631 15.16 74.5738 15.16ZM76.7818 17.272V35H72.3018V17.272H76.7818ZM91.032 17.016C93.144 17.016 94.8507 17.688 96.152 19.032C97.4533 20.3547 98.104 22.2107 98.104 24.6V35H93.624V25.208C93.624 23.8 93.272 22.7227 92.568 21.976C91.864 21.208 90.904 20.824 89.688 20.824C88.4507 20.824 87.4693 21.208 86.744 21.976C86.04 22.7227 85.688 23.8 85.688 25.208V35H81.208V17.272H85.688V19.48C86.2853 18.712 87.0427 18.1147 87.96 17.688C88.8987 17.24 89.9227 17.016 91.032 17.016ZM119.1 17.272V35H114.588V32.76C114.012 33.528 113.255 34.136 112.316 34.584C111.399 35.0107 110.396 35.224 109.308 35.224C107.922 35.224 106.695 34.936 105.628 34.36C104.562 33.7627 103.719 32.8987 103.1 31.768C102.503 30.616 102.204 29.2507 102.204 27.672V17.272H106.684V27.032C106.684 28.44 107.036 29.528 107.74 30.296C108.444 31.0427 109.404 31.416 110.62 31.416C111.858 31.416 112.828 31.0427 113.532 30.296C114.236 29.528 114.588 28.44 114.588 27.032V17.272H119.1ZM133.313 35L129.665 29.496L126.433 35H121.633L127.425 26.104L121.569 17.272H126.625L130.241 22.744L133.505 17.272H138.305L132.481 26.104L138.369 35H133.313Z" fill="#939093"/>
</svg>
