<svg width="188" height="188" viewBox="0 0 188 188" fill="none" xmlns="http://www.w3.org/2000/svg">
<rect width="188" height="188" fill="white"/>
<path d="M53.536 128.076C51.36 128.076 49.632 127.596 48.352 126.636C47.072 125.612 46.432 124.172 46.432 122.316V80.844C46.432 73.42 48.384 67.98 52.288 64.524C56.256 61.004 62.432 59.244 70.816 59.244C77.664 59.244 82.88 60.972 86.464 64.428C90.112 67.82 91.936 72.748 91.936 79.212C91.936 81.452 91.872 83.628 91.744 85.74C91.616 87.788 91.424 89.228 91.168 90.06C90.208 93.58 88.448 96.268 85.888 98.124C89.344 101.004 91.072 104.332 91.072 108.108V122.316C91.072 126.284 88.864 128.268 84.448 128.268C82.272 128.268 80.544 127.788 79.264 126.828C77.984 125.804 77.344 124.3 77.344 122.316V109.644C77.344 106.188 76.8 103.756 75.712 102.348C74.688 100.94 72.576 100.236 69.376 100.236C65.92 100.236 63.52 101.004 62.176 102.54C60.896 104.012 60.256 106.764 60.256 110.796V122.316C60.256 126.156 58.016 128.076 53.536 128.076ZM59.488 92.364C61.088 91.02 62.496 90.156 63.712 89.772C64.992 89.324 66.816 89.1 69.184 89.1C72.384 89.1 74.72 88.94 76.192 88.62C77.728 88.3 78.72 87.628 79.168 86.604C79.616 85.58 79.84 83.98 79.84 81.804C79.84 77.452 79.168 74.444 77.824 72.78C76.544 71.052 74.208 70.188 70.816 70.188C67.04 70.188 64.352 71.052 62.752 72.78C61.216 74.508 60.448 77.516 60.448 81.804C60.448 83.916 60.352 85.804 60.16 87.468C60.032 89.068 59.808 90.7 59.488 92.364ZM121.532 128.268C119.932 128.268 118.3 127.916 116.636 127.212C115.036 126.444 114.236 125.228 114.236 123.564V78.636C114.236 76.588 114.748 75.18 115.772 74.412C116.796 73.644 117.628 73.164 118.268 72.972H99.7398C98.2038 72.972 97.0518 72.3 96.2838 70.956C95.5798 69.548 95.2278 68.108 95.2278 66.636C95.2278 65.036 95.6118 63.596 96.3798 62.316C97.1478 60.972 98.2678 60.3 99.7398 60.3H142.652C144.124 60.3 145.244 60.972 146.012 62.316C146.78 63.596 147.164 65.036 147.164 66.636C147.164 68.108 146.78 69.548 146.012 70.956C145.308 72.3 144.188 72.972 142.652 72.972H128.06V123.564C128.06 125.164 127.388 126.348 126.044 127.116C124.764 127.884 123.26 128.268 121.532 128.268Z" fill="black"/>
<path opacity="0.1" d="M97.2704 137.41C91.7479 137.334 87.2101 141.75 87.1347 147.272C87.0593 152.795 91.4747 157.332 96.9972 157.408C102.52 157.483 107.057 153.068 107.133 147.545C107.208 142.023 102.793 137.485 97.2704 137.41Z" fill="black"/>
<path d="M97.2704 137.41C91.7479 137.334 87.2101 141.75 87.1347 147.272C87.0593 152.795 91.4747 157.332 96.9972 157.408C102.52 157.483 107.057 153.068 107.133 147.545C107.208 142.023 102.793 137.485 97.2704 137.41Z" stroke="black" stroke-width="2"/>
<path d="M67.1366 146.999L87.1347 147.272" stroke="black" stroke-width="2" stroke-linecap="round" stroke-linejoin="round"/>
<path d="M107.133 147.545L127.131 147.819" stroke="black" stroke-width="2" stroke-linecap="round" stroke-linejoin="round"/>
</svg>
