<svg width="25" height="25" viewBox="0 0 25 25" fill="none" xmlns="http://www.w3.org/2000/svg">
<g clip-path="url(#clip0_440_46)">
<mask id="mask0_440_46" style="mask-type:luminance" maskUnits="userSpaceOnUse" x="0" y="0" width="25" height="25">
<path d="M25 0H0V25H25V0Z" fill="white"/>
</mask>
<g mask="url(#mask0_440_46)">
<path d="M15.8925 25C12.4993 25 12.4993 20.9279 9.10609 20.9279C5.2006 20.9279 0 19.7983 0 15.8916C0 12.4986 4.07097 12.4986 4.07097 9.10556C4.07097 5.20174 5.2006 0 9.10752 0C12.5007 0 12.5007 4.07218 15.8939 4.07218C19.798 4.07218 25 5.20174 25 9.10844C25 12.5015 20.9276 12.5015 20.9276 15.8945C20.9261 19.8055 19.798 25 15.8925 25Z" fill="url(#paint0_linear_440_46)"/>
</g>
</g>
<defs>
<linearGradient id="paint0_linear_440_46" x1="12.5" y1="0" x2="12.5" y2="25" gradientUnits="userSpaceOnUse">
<stop stop-color="#D69FEF"/>
<stop offset="1" stop-color="#18131A"/>
</linearGradient>
<clipPath id="clip0_440_46">
<rect width="25" height="25" fill="white"/>
</clipPath>
</defs>
</svg>
