<svg width="163" height="48" viewBox="0 0 163 48" fill="none" xmlns="http://www.w3.org/2000/svg">
<g clip-path="url(#clip0_465_275)">
<path fill-rule="evenodd" clip-rule="evenodd" d="M26.0715 2.23942C25.7654 2.23942 25.4763 2.30984 25.2212 2.41547C25.7824 2.78519 26.0885 3.29576 26.2416 3.87674C26.2416 3.96477 26.2756 4.01759 26.2926 4.10562L26.3096 4.29928C26.3606 5.3028 26.0545 5.42604 25.8504 6.02463C25.5273 6.78167 25.6123 7.60914 26.0035 8.26054C26.0375 8.34857 26.0715 8.4366 26.1396 8.50702C25.7144 5.63731 28.0273 5.19716 28.4695 4.29928C28.5035 3.52463 27.8742 2.99646 27.3811 2.62674C26.9891 2.37116 26.5348 2.23678 26.0715 2.23942ZM29.5919 2.90843C29.5409 3.17252 29.5919 3.10209 29.5749 3.24294L29.5409 3.54223L29.4729 3.80632L29.3879 4.08801L29.2518 4.35209L29.1668 4.47533L29.0987 4.58097C29.0477 4.669 28.9967 4.75702 28.9287 4.80984C28.8777 4.88026 28.8266 4.96829 28.7586 5.02111L28.5375 5.19716C28.2994 5.39083 28.0273 5.53167 27.8062 5.70773C27.7212 5.76054 27.6362 5.79576 27.5851 5.88378C27.5001 5.919 27.4321 5.98942 27.364 6.05984L27.177 6.27111L27.0069 6.49998L26.8538 6.72885L26.7348 6.99294L26.6498 7.25702C26.6178 7.34971 26.5894 7.44368 26.5647 7.53871L26.5477 7.69716L26.5307 7.8204L26.5137 8.1197V8.31336L26.5647 8.59505C26.5647 8.70069 26.5817 8.77111 26.6157 8.87674L26.7008 9.14083L26.7688 9.31688L24.2518 8.29576L22.9763 7.94364L22.296 7.76759C21.6323 7.63346 20.9625 7.53357 20.2892 7.46829H20.2212C18.4136 7.2668 16.5878 7.32605 14.796 7.64435L14.2858 7.74998C13.9457 7.8028 13.6225 7.89083 13.3164 7.96125L12.8062 8.10209L12.347 8.31336L11.9729 8.48942L11.9219 8.50702L11.6157 8.68308L11.5307 8.70069L11.1906 8.87674L10.9865 8.99998L10.8845 9.0528L10.5953 9.22885L10.3232 9.40491L10.1021 9.56336L10.0851 9.58097L9.86405 9.75702L9.69398 9.89787L9.62595 9.95069L9.45588 10.0915C9.45588 10.1267 9.43888 10.1267 9.42187 10.1443L9.21779 10.3204V10.3556C9.13275 10.4084 9.06473 10.4789 9.01371 10.5493L8.97969 10.5669L8.80962 10.7429C8.80962 10.7781 8.7586 10.7958 8.7416 10.831L8.57153 11.0246L8.5035 11.0774L8.26541 11.3591L8.23139 11.3943C7.87734 11.795 7.47758 12.1498 7.04092 12.4507C6.40548 12.8996 5.71293 13.2551 4.98309 13.507C4.52391 13.5951 4.04772 13.7887 3.63956 13.8239L3.36745 13.8591L3.09534 13.9296L2.82323 14.0352L2.56813 14.1584L2.33003 14.3169C2.245 14.3697 2.15996 14.4401 2.10894 14.5105C2.02391 14.5634 1.93888 14.6514 1.88785 14.7218L1.70078 14.9507L1.53071 15.1972L1.37765 15.4612L1.2586 15.7605L1.15656 16.0598L1.10554 16.3239V16.3591L1.02051 16.676V17.0458C1.03501 17.1929 1.07535 17.3361 1.13956 17.4683L1.2586 17.6796L1.39466 17.8908C1.52005 18.0208 1.65667 18.1387 1.80282 18.2429C2.05792 18.4894 2.12595 18.5774 2.46609 18.7535L2.63615 18.8415H2.67017V18.912C2.70504 19.1004 2.76216 19.2837 2.84024 19.4577L2.92527 19.669L2.94228 19.7218C3.03489 19.8922 3.1371 20.0568 3.2484 20.2148L3.41847 20.426L3.63956 20.6197H3.65656C3.92154 20.8634 4.23508 21.0437 4.57493 21.1479L4.62595 21.1655L4.762 21.2007C4.72799 21.8169 4.71098 22.3979 4.81302 22.6091C4.89806 22.8204 5.39126 22.1338 5.86745 21.3415C5.79942 22.1162 5.76541 23.0493 5.86745 23.3134C5.98649 23.5951 6.64976 22.7148 7.22799 21.7289C9.00203 21.2834 10.848 21.2389 12.6401 21.5985C14.4323 21.958 16.1285 22.7132 17.6133 23.8126C19.0981 24.9119 20.3366 26.3296 21.2445 27.9691C22.1523 29.6086 22.7082 31.4314 22.8742 33.3134C22.7382 32.081 21.2756 31.412 20.5953 31.5704C20.2552 32.4155 19.711 33.507 18.8096 34.176C18.8776 33.419 18.8436 32.6443 18.6906 31.8873C18.4525 32.9436 17.9763 33.9119 17.33 34.757C16.8266 34.7924 16.3224 34.6985 15.8625 34.4834C15.4026 34.2684 15.0012 33.9391 14.694 33.5246L14.6089 33.3838L14.5239 33.1373L14.4559 32.9084V32.4859C14.4559 32.3979 14.4729 32.3098 14.5069 32.2394C14.5069 32.169 14.5409 32.081 14.5749 32.0105L14.711 31.7641C14.8811 31.2359 14.8811 30.7781 14.5409 30.5317L14.3538 30.4084L14.2008 30.3556L14.1157 30.3204L13.8777 30.2676C13.8058 30.2458 13.7314 30.234 13.6566 30.2324L13.4185 30.2148H13.2484L13.0103 30.25L12.7722 30.3028L12.5511 30.3732L12.33 30.4789L12.1089 30.6021C9.55792 32.3274 11.0885 36.3767 12.8232 37.5563C12.177 37.6796 11.4967 37.8204 11.3096 37.9612L11.2926 37.9965C12.3018 38.6193 13.406 39.0599 14.5579 39.2993C15.9447 39.5792 17.3718 39.5654 18.7533 39.2587C20.1347 38.952 21.4418 38.3587 22.5957 37.5147C23.7495 36.6706 24.7262 35.5933 25.4669 34.3478C26.2075 33.1022 26.6967 31.7142 26.9049 30.2676L26.9729 30.5669C27.0069 30.7781 27.0579 30.9894 27.0749 31.2183L27.1089 31.5176V31.5704L27.143 31.8521L27.16 32.2394V33.1901L27.143 33.331V33.5951C27.1089 33.6303 27.1089 33.6655 27.1089 33.6831C27.1089 33.7887 27.1089 33.8591 27.0749 33.9472V34.0528C27.0749 34.176 27.0409 34.2641 27.0239 34.3873V34.4049L26.9559 34.7218V34.757C26.9559 34.8627 26.9219 34.9683 26.8879 35.0739V35.1091L26.8028 35.426V35.4612L26.7178 35.7781V35.7958L26.6157 36.1479L26.4967 36.4648L26.3606 36.7993L26.2416 37.1338C26.1736 37.2218 26.1396 37.345 26.0715 37.4507L26.0545 37.5211C26.0545 37.5211 26.0545 37.5563 26.0205 37.5563C25.2964 39.0609 24.2422 40.3693 22.9423 41.3767L22.6702 41.5704C22.6702 41.6056 22.6191 41.6056 22.6021 41.6408L22.364 41.8169L22.3981 41.8697L22.8572 41.7993H22.8742C23.2443 41.738 23.6129 41.6676 23.9797 41.588L24.1328 41.5528L24.3538 41.5L24.5579 41.4472C25.6464 41.1831 26.7178 40.7958 27.7382 40.3556C26.0035 42.8204 23.6566 44.8098 20.9185 46.1303C23.8325 45.9259 26.6511 44.9719 29.1189 43.3548C31.5868 41.7378 33.6258 39.5087 35.0511 36.8697C34.5919 39.5105 33.5885 41.9929 32.0919 44.176C34.1036 42.803 35.8159 41.0101 37.1192 38.9121C38.4224 36.8141 39.2878 34.4574 39.66 31.9929C40.0341 33.7887 40.1362 35.6373 39.9661 37.4683C47.9083 26.0246 40.6464 14.1408 37.5851 11.007L37.5681 10.9542V10.9718L37.5511 10.9542L37.5171 11.3591C37.4892 11.6123 37.4552 11.8647 37.4151 12.1162L37.228 12.8732C37.0668 13.3587 36.8678 13.8297 36.6328 14.2817C36.1972 15.0838 35.6271 15.7992 34.9491 16.3943L34.694 16.6408C34.3086 16.9687 33.886 17.2466 33.4355 17.4683L32.7552 17.7852C32.2816 17.9693 31.7918 18.105 31.2926 18.1901L30.5443 18.2958C29.8667 18.3331 29.1872 18.2858 28.5205 18.1549L27.7892 17.9612C29.0358 17.8468 30.2403 17.4372 31.3096 16.7641L31.9219 16.3063L32.4831 15.7958L32.9933 15.2324C33.1634 15.0387 33.3164 14.8274 33.4525 14.6162C33.4865 14.5986 33.5035 14.5458 33.5205 14.5105L33.8436 13.9648C34.0862 13.5166 34.2855 13.0449 34.4389 12.5563C34.5069 12.3098 34.5749 12.0458 34.6089 11.7993C34.66 11.5352 34.711 11.2887 34.728 11.0422L34.779 10.2676L34.762 9.72181L34.66 8.96477C34.6259 8.70069 34.5749 8.4366 34.4899 8.19012C34.4219 7.96125 34.3538 7.71477 34.2518 7.46829C34.1668 7.22181 34.0647 6.99294 33.9457 6.76407L33.5715 6.09505C33.2843 5.67052 32.9719 5.26481 32.6362 4.88026C32.0515 4.25009 31.3597 3.73682 30.5953 3.36618C30.2722 3.13731 29.9321 3.01407 29.5919 2.90843Z" fill="#939093"/>
</g>
<path d="M76.4214 35H71.9414L61.7974 19.672V35H57.3174V12.632H61.7974L71.9414 27.992V12.632H76.4214V35ZM97.3286 25.752C97.3286 26.392 97.286 26.968 97.2006 27.48H84.2406C84.3473 28.76 84.7953 29.7627 85.5846 30.488C86.374 31.2133 87.3446 31.576 88.4966 31.576C90.1606 31.576 91.3446 30.8613 92.0486 29.432H96.8806C96.3686 31.1387 95.3873 32.5467 93.9366 33.656C92.486 34.744 90.7046 35.288 88.5926 35.288C86.886 35.288 85.35 34.9147 83.9846 34.168C82.6406 33.4 81.5846 32.3227 80.8166 30.936C80.07 29.5493 79.6966 27.9493 79.6966 26.136C79.6966 24.3013 80.07 22.6907 80.8166 21.304C81.5633 19.9173 82.6086 18.8507 83.9526 18.104C85.2966 17.3573 86.8433 16.984 88.5926 16.984C90.278 16.984 91.782 17.3467 93.1046 18.072C94.4486 18.7973 95.4833 19.832 96.2086 21.176C96.9553 22.4987 97.3286 24.024 97.3286 25.752ZM92.6886 24.472C92.6673 23.32 92.2513 22.4027 91.4406 21.72C90.63 21.016 89.638 20.664 88.4646 20.664C87.3553 20.664 86.4166 21.0053 85.6486 21.688C84.902 22.3493 84.4433 23.2773 84.2726 24.472H92.6886ZM107.383 35.288C105.932 35.288 104.631 35.032 103.479 34.52C102.327 33.9867 101.409 33.272 100.727 32.376C100.065 31.48 99.7026 30.488 99.6386 29.4H104.151C104.236 30.0827 104.567 30.648 105.143 31.096C105.74 31.544 106.476 31.768 107.351 31.768C108.204 31.768 108.865 31.5973 109.335 31.256C109.825 30.9147 110.071 30.4773 110.071 29.944C110.071 29.368 109.772 28.9413 109.175 28.664C108.599 28.3653 107.671 28.0453 106.391 27.704C105.068 27.384 103.98 27.0533 103.127 26.712C102.295 26.3707 101.569 25.848 100.951 25.144C100.353 24.44 100.055 23.4907 100.055 22.296C100.055 21.3147 100.332 20.4187 100.887 19.608C101.463 18.7973 102.273 18.1573 103.319 17.688C104.385 17.2187 105.633 16.984 107.063 16.984C109.175 16.984 110.86 17.5173 112.119 18.584C113.377 19.6293 114.071 21.048 114.199 22.84H109.911C109.847 22.136 109.548 21.5813 109.015 21.176C108.503 20.7493 107.809 20.536 106.935 20.536C106.124 20.536 105.495 20.6853 105.047 20.984C104.62 21.2827 104.407 21.6987 104.407 22.232C104.407 22.8293 104.705 23.288 105.303 23.608C105.9 23.9067 106.828 24.216 108.087 24.536C109.367 24.856 110.423 25.1867 111.255 25.528C112.087 25.8693 112.801 26.4027 113.399 27.128C114.017 27.832 114.337 28.7707 114.359 29.944C114.359 30.968 114.071 31.8853 113.495 32.696C112.94 33.5067 112.129 34.1467 111.063 34.616C110.017 35.064 108.791 35.288 107.383 35.288ZM123.252 20.952V29.528C123.252 30.1253 123.391 30.5627 123.668 30.84C123.967 31.096 124.457 31.224 125.14 31.224H127.22V35H124.404C120.628 35 118.74 33.1653 118.74 29.496V20.952H116.628V17.272H118.74V12.888H123.252V17.272H127.22V20.952H123.252ZM132.426 35.224C131.616 35.224 130.944 34.9787 130.41 34.488C129.898 33.976 129.642 33.3467 129.642 32.6C129.642 31.8533 129.898 31.2347 130.41 30.744C130.944 30.232 131.616 29.976 132.426 29.976C133.216 29.976 133.866 30.232 134.378 30.744C134.89 31.2347 135.146 31.8533 135.146 32.6C135.146 33.3467 134.89 33.976 134.378 34.488C133.866 34.9787 133.216 35.224 132.426 35.224ZM141.027 15.16C140.216 15.16 139.544 14.9147 139.011 14.424C138.499 13.912 138.243 13.2827 138.243 12.536C138.243 11.7893 138.499 11.1707 139.011 10.68C139.544 10.168 140.216 9.912 141.027 9.912C141.816 9.912 142.467 10.168 142.979 10.68C143.491 11.1707 143.747 11.7893 143.747 12.536C143.747 13.2827 143.491 13.912 142.979 14.424C142.467 14.9147 141.816 15.16 141.027 15.16ZM143.235 37.912C143.235 39.8747 142.744 41.2827 141.763 42.136C140.803 43.0107 139.416 43.448 137.603 43.448H135.619V39.64H136.899C137.582 39.64 138.062 39.5013 138.339 39.224C138.616 38.968 138.755 38.5413 138.755 37.944V17.272H143.235V37.912ZM154.445 35.288C152.994 35.288 151.693 35.032 150.541 34.52C149.389 33.9867 148.472 33.272 147.789 32.376C147.128 31.48 146.765 30.488 146.701 29.4H151.213C151.298 30.0827 151.629 30.648 152.205 31.096C152.802 31.544 153.538 31.768 154.413 31.768C155.266 31.768 155.928 31.5973 156.397 31.256C156.888 30.9147 157.133 30.4773 157.133 29.944C157.133 29.368 156.834 28.9413 156.237 28.664C155.661 28.3653 154.733 28.0453 153.453 27.704C152.13 27.384 151.042 27.0533 150.189 26.712C149.357 26.3707 148.632 25.848 148.013 25.144C147.416 24.44 147.117 23.4907 147.117 22.296C147.117 21.3147 147.394 20.4187 147.949 19.608C148.525 18.7973 149.336 18.1573 150.381 17.688C151.448 17.2187 152.696 16.984 154.125 16.984C156.237 16.984 157.922 17.5173 159.181 18.584C160.44 19.6293 161.133 21.048 161.261 22.84H156.973C156.909 22.136 156.61 21.5813 156.077 21.176C155.565 20.7493 154.872 20.536 153.997 20.536C153.186 20.536 152.557 20.6853 152.109 20.984C151.682 21.2827 151.469 21.6987 151.469 22.232C151.469 22.8293 151.768 23.288 152.365 23.608C152.962 23.9067 153.89 24.216 155.149 24.536C156.429 24.856 157.485 25.1867 158.317 25.528C159.149 25.8693 159.864 26.4027 160.461 27.128C161.08 27.832 161.4 28.7707 161.421 29.944C161.421 30.968 161.133 31.8853 160.557 32.696C160.002 33.5067 159.192 34.1467 158.125 34.616C157.08 35.064 155.853 35.288 154.445 35.288Z" fill="#939093"/>
<defs>
<clipPath id="clip0_465_275">
<rect width="45" height="45" fill="white" transform="translate(0 1.5)"/>
</clipPath>
</defs>
</svg>
