<svg width="163" height="48" viewBox="0 0 163 48" fill="none" xmlns="http://www.w3.org/2000/svg">
<g clip-path="url(#clip0_465_257)">
<path fill-rule="evenodd" clip-rule="evenodd" d="M22.5 5.71875C12.4035 5.71875 4.21875 13.9035 4.21875 24C4.21875 34.0966 12.4035 42.2812 22.5 42.2812C26.3061 42.2812 29.8373 41.12 32.7634 39.131L16.875 19.9981V33.1406C16.875 34.3056 15.9306 35.25 14.7656 35.25C13.6007 35.25 12.6562 34.3056 12.6562 33.1406V14.1562C12.6562 13.2675 13.2133 12.4741 14.0493 12.1723C14.8852 11.8704 15.8206 12.1249 16.3884 12.8086L37.4085 38.1213C38.1437 39.0067 38.0334 40.3181 37.1607 41.0682C33.2241 44.4525 28.0985 46.5 22.5 46.5C10.0736 46.5 0 36.4265 0 24C0 11.5736 10.0736 1.5 22.5 1.5C34.9265 1.5 45 11.5736 45 24C45 26.1495 44.6979 28.2321 44.1326 30.2058C43.857 31.1688 43.5187 32.1051 43.1227 33.0104C42.6558 34.0778 41.4121 34.5643 40.3447 34.0974C39.2774 33.6306 38.7906 32.3869 39.2577 31.3195C39.5789 30.5849 39.8534 29.8253 40.077 29.0442C40.5352 27.4445 40.7812 25.7528 40.7812 24C40.7812 13.9035 32.5966 5.71875 22.5 5.71875ZM29.5312 12.0469C30.6962 12.0469 31.6406 12.9913 31.6406 14.1562V22.5938C31.6406 23.7587 30.6962 24.7031 29.5312 24.7031C28.3663 24.7031 27.4219 23.7587 27.4219 22.5938V14.1562C27.4219 12.9913 28.3663 12.0469 29.5312 12.0469Z" fill="#939093"/>
</g>
<path d="M76.4995 35H72.0195L61.8755 19.672V35H57.3955V12.632H61.8755L72.0195 27.992V12.632H76.4995V35ZM97.4068 25.752C97.4068 26.392 97.3641 26.968 97.2788 27.48H84.3188C84.4254 28.76 84.8734 29.7627 85.6628 30.488C86.4521 31.2133 87.4228 31.576 88.5748 31.576C90.2388 31.576 91.4228 30.8613 92.1268 29.432H96.9588C96.4468 31.1387 95.4654 32.5467 94.0148 33.656C92.5641 34.744 90.7828 35.288 88.6708 35.288C86.9641 35.288 85.4281 34.9147 84.0628 34.168C82.7188 33.4 81.6628 32.3227 80.8948 30.936C80.1481 29.5493 79.7747 27.9493 79.7747 26.136C79.7747 24.3013 80.1481 22.6907 80.8948 21.304C81.6414 19.9173 82.6868 18.8507 84.0308 18.104C85.3748 17.3573 86.9214 16.984 88.6708 16.984C90.3561 16.984 91.8601 17.3467 93.1828 18.072C94.5268 18.7973 95.5614 19.832 96.2868 21.176C97.0334 22.4987 97.4068 24.024 97.4068 25.752ZM92.7668 24.472C92.7454 23.32 92.3294 22.4027 91.5188 21.72C90.7081 21.016 89.7161 20.664 88.5428 20.664C87.4334 20.664 86.4948 21.0053 85.7268 21.688C84.9801 22.3493 84.5214 23.2773 84.3508 24.472H92.7668ZM110.469 35L106.821 29.496L103.589 35H98.7888L104.581 26.104L98.7248 17.272H103.781L107.397 22.744L110.661 17.272H115.461L109.637 26.104L115.525 35H110.469ZM123.174 20.952V29.528C123.174 30.1253 123.313 30.5627 123.59 30.84C123.889 31.096 124.379 31.224 125.062 31.224H127.142V35H124.326C120.55 35 118.662 33.1653 118.662 29.496V20.952H116.55V17.272H118.662V12.888H123.174V17.272H127.142V20.952H123.174ZM132.348 35.224C131.538 35.224 130.866 34.9787 130.332 34.488C129.82 33.976 129.564 33.3467 129.564 32.6C129.564 31.8533 129.82 31.2347 130.332 30.744C130.866 30.232 131.538 29.976 132.348 29.976C133.138 29.976 133.788 30.232 134.3 30.744C134.812 31.2347 135.068 31.8533 135.068 32.6C135.068 33.3467 134.812 33.976 134.3 34.488C133.788 34.9787 133.138 35.224 132.348 35.224ZM140.949 15.16C140.138 15.16 139.466 14.9147 138.933 14.424C138.421 13.912 138.165 13.2827 138.165 12.536C138.165 11.7893 138.421 11.1707 138.933 10.68C139.466 10.168 140.138 9.912 140.949 9.912C141.738 9.912 142.389 10.168 142.901 10.68C143.413 11.1707 143.669 11.7893 143.669 12.536C143.669 13.2827 143.413 13.912 142.901 14.424C142.389 14.9147 141.738 15.16 140.949 15.16ZM143.157 37.912C143.157 39.8747 142.666 41.2827 141.685 42.136C140.725 43.0107 139.338 43.448 137.525 43.448H135.541V39.64H136.821C137.503 39.64 137.983 39.5013 138.261 39.224C138.538 38.968 138.677 38.5413 138.677 37.944V17.272H143.157V37.912ZM154.367 35.288C152.916 35.288 151.615 35.032 150.463 34.52C149.311 33.9867 148.394 33.272 147.711 32.376C147.05 31.48 146.687 30.488 146.623 29.4H151.135C151.22 30.0827 151.551 30.648 152.127 31.096C152.724 31.544 153.46 31.768 154.335 31.768C155.188 31.768 155.85 31.5973 156.319 31.256C156.81 30.9147 157.055 30.4773 157.055 29.944C157.055 29.368 156.756 28.9413 156.159 28.664C155.583 28.3653 154.655 28.0453 153.375 27.704C152.052 27.384 150.964 27.0533 150.111 26.712C149.279 26.3707 148.554 25.848 147.935 25.144C147.338 24.44 147.039 23.4907 147.039 22.296C147.039 21.3147 147.316 20.4187 147.871 19.608C148.447 18.7973 149.258 18.1573 150.303 17.688C151.37 17.2187 152.618 16.984 154.047 16.984C156.159 16.984 157.844 17.5173 159.103 18.584C160.362 19.6293 161.055 21.048 161.183 22.84H156.895C156.831 22.136 156.532 21.5813 155.999 21.176C155.487 20.7493 154.794 20.536 153.919 20.536C153.108 20.536 152.479 20.6853 152.031 20.984C151.604 21.2827 151.391 21.6987 151.391 22.232C151.391 22.8293 151.69 23.288 152.287 23.608C152.884 23.9067 153.812 24.216 155.071 24.536C156.351 24.856 157.407 25.1867 158.239 25.528C159.071 25.8693 159.786 26.4027 160.383 27.128C161.002 27.832 161.322 28.7707 161.343 29.944C161.343 30.968 161.055 31.8853 160.479 32.696C159.924 33.5067 159.114 34.1467 158.047 34.616C157.002 35.064 155.775 35.288 154.367 35.288Z" fill="#939093"/>
<defs>
<clipPath id="clip0_465_257">
<rect width="45" height="45" fill="white" transform="translate(0 1.5)"/>
</clipPath>
</defs>
</svg>
