<svg width="233" height="48" viewBox="0 0 233 48" fill="none" xmlns="http://www.w3.org/2000/svg">
<path d="M27.9787 32.6705C28.2298 30.653 28.1545 30.3571 29.7127 30.6839L30.1083 30.7174C31.3065 30.77 32.8738 30.5316 33.7946 30.1191C35.7767 29.2321 36.9521 27.7512 34.9976 28.1403C30.5393 29.0273 30.2328 27.5714 30.2328 27.5714C34.9405 20.8352 36.9084 12.2841 35.2098 10.191C30.5766 4.48173 22.5567 7.18152 22.4225 7.25161L22.3798 7.25922C21.4989 7.08296 20.5131 6.97764 19.4056 6.96037C17.3881 6.9284 15.8572 7.47045 14.696 8.31988C14.696 8.31988 0.388916 2.63548 1.05451 15.4686C1.19606 18.1986 5.11213 36.1258 9.78279 30.7109C11.4899 28.7309 13.1396 27.0568 13.1396 27.0568C13.9588 27.5816 14.9396 27.8493 15.9683 27.7532L16.0478 27.6878C16.0229 27.9336 16.0339 28.1741 16.0796 28.4587C14.8766 29.7553 15.2301 29.9829 12.8245 30.4604C10.3908 30.9441 11.8206 31.8054 12.7539 32.0305C13.8856 32.3034 16.5037 32.69 18.2732 30.3017L18.2028 30.5742C18.6748 30.9383 18.6429 33.1916 18.7098 34.8015C18.7768 36.4114 18.8886 37.9138 19.2289 38.7995C19.5692 39.6851 19.9707 41.9667 23.1322 41.3132C25.7744 40.7672 27.7946 39.9813 27.9787 32.6705Z" fill="#18131A" stroke="#18131A" stroke-width="2"/>
<path d="M34.9982 28.1402C30.5395 29.0271 30.233 27.5713 30.233 27.5713C34.9407 20.8346 36.9086 12.2834 35.2103 10.1905C30.5771 4.48156 22.5569 7.18152 22.4231 7.25161L22.38 7.25905C21.4991 7.0827 20.5133 6.97764 19.4053 6.9602C17.3878 6.92832 15.8574 7.47028 14.6961 8.31954C14.6961 8.31954 0.388837 2.6354 1.05425 15.4684C1.19581 18.1986 5.11179 36.1258 9.78262 30.7109C11.4898 28.7309 13.1393 27.0568 13.1393 27.0568C13.9586 27.5816 14.9394 27.8493 15.9676 27.7532L16.0474 27.6878C16.0226 27.9336 16.034 28.1741 16.0794 28.4587C14.8762 29.7553 15.2297 29.9829 12.8244 30.4604C10.3904 30.9441 11.8202 31.8054 12.7538 32.0305C13.8855 32.3034 16.5038 32.69 18.273 30.3017L18.2024 30.5742C18.6739 30.9383 19.005 32.943 18.9495 34.7602C18.894 36.5774 18.8569 37.825 19.2284 38.7995C19.5999 39.774 19.9702 41.9667 23.1323 41.3132C25.7745 40.7672 27.1437 39.3521 27.3342 36.9917C27.4694 35.3136 27.7753 35.5616 27.7946 34.0613L28.0399 33.3511C28.3229 31.0763 28.0849 30.3424 29.7127 30.6838L30.1083 30.7173C31.3065 30.7698 32.8746 30.5314 33.7949 30.1189C35.7767 29.2319 36.9521 27.751 34.998 28.1402H34.9982Z" fill="#18131A"/>
<path d="M18.4644 29.4441C18.3416 33.6768 18.4952 37.9391 18.9247 38.975C19.3544 40.0108 20.274 42.0256 23.4364 41.3723C26.0784 40.8261 27.0396 39.769 27.4568 37.4358C27.764 35.7191 28.3563 30.9516 28.4322 29.9748M14.674 8.225C14.674 8.225 0.356918 2.5818 1.02251 15.4148C1.16406 18.145 5.08031 36.0728 9.75105 30.6577C11.4579 28.6774 13.0015 27.1243 13.0015 27.1243M22.4073 7.19503C21.9117 7.34488 30.3713 4.21264 35.179 10.1371C36.8772 12.23 34.9093 20.7812 30.2017 27.5181" stroke="#939093" stroke-width="2" stroke-linejoin="round"/>
<path d="M30.2015 27.5181C30.2015 27.5181 30.5082 28.9744 34.967 28.0868C36.9207 27.6977 35.7449 29.1788 33.7636 30.0662C32.1375 30.794 28.4919 30.9805 28.4323 29.9748C28.2791 27.38 30.351 28.1683 30.2015 27.5181ZM30.2015 27.5181C30.0663 26.9325 29.1397 26.3578 28.5268 24.9247C27.9917 23.6739 21.1879 14.0814 30.4137 15.506C30.7516 15.4386 28.0075 7.04312 19.3734 6.90661C10.7413 6.77009 11.0245 17.1441 11.0245 17.1441" stroke="#939093" stroke-width="2" stroke-linejoin="bevel"/>
<path d="M16.0478 28.4055C14.8444 29.7019 15.1983 29.9296 12.7927 30.4072C10.3588 30.8911 11.7888 31.7521 12.7221 31.9771C13.8538 32.2502 16.4721 32.6369 18.2413 30.2479C18.78 29.5205 18.2381 28.3599 17.498 28.0641C17.1405 27.9212 16.6623 27.7423 16.0478 28.4055Z" stroke="#939093" stroke-width="2" stroke-linejoin="round"/>
<path d="M15.969 28.3828C15.8477 27.6206 16.2287 26.7135 16.6369 25.6523C17.2505 24.0602 18.6662 22.4677 17.5337 17.4171C16.6896 13.6534 11.028 16.6338 11.0244 17.1441C11.021 17.6543 11.2805 19.7308 10.9298 22.1489C10.4723 25.3043 13.0118 27.973 15.9361 27.7" stroke="#939093" stroke-width="2" stroke-linejoin="round"/>
<path d="M14.6219 17.0676C14.5964 17.2419 14.9528 17.7071 15.4175 17.7692C15.8815 17.8316 16.2786 17.4681 16.3037 17.294C16.3289 17.1197 15.9729 16.9277 15.508 16.8653C15.0438 16.8028 14.6465 16.8938 14.622 17.0676H14.6219Z" fill="#939093" stroke="#939093" stroke-width="2"/>
<path d="M28.7532 16.7123C28.7784 16.8866 28.4224 17.3517 27.9576 17.4138C27.4933 17.4762 27.0962 17.1127 27.0708 16.9386C27.0462 16.7643 27.4023 16.5723 27.8667 16.5099C28.331 16.4475 28.7281 16.5384 28.7532 16.7123V16.7123Z" fill="#939093" stroke="#939093" stroke-width="2"/>
<path d="M30.4137 15.506C30.4902 16.8732 30.1084 17.8045 30.0603 19.2599C29.989 21.3754 31.1061 23.7968 29.4229 26.2212" stroke="#939093" stroke-width="2" stroke-linejoin="round"/>
<path d="M67.7616 19.576C67.7616 20.7707 67.4736 21.8907 66.8976 22.936C66.343 23.9813 65.4576 24.824 64.2416 25.464C63.047 26.104 61.5323 26.424 59.6976 26.424H55.9536V35H51.4736V12.664H59.6976C61.4256 12.664 62.8976 12.9627 64.1136 13.56C65.3296 14.1573 66.2363 14.9787 66.8336 16.024C67.4523 17.0693 67.7616 18.2533 67.7616 19.576ZM59.5056 22.808C60.743 22.808 61.6603 22.5307 62.2576 21.976C62.855 21.4 63.1536 20.6 63.1536 19.576C63.1536 17.4 61.9376 16.312 59.5056 16.312H55.9536V22.808H59.5056ZM78.8144 35.288C77.1077 35.288 75.5717 34.9147 74.2064 34.168C72.841 33.4 71.7637 32.3227 70.9744 30.936C70.2064 29.5493 69.8224 27.9493 69.8224 26.136C69.8224 24.3227 70.217 22.7227 71.0064 21.336C71.817 19.9493 72.9157 18.8827 74.3024 18.136C75.689 17.368 77.2357 16.984 78.9424 16.984C80.649 16.984 82.1957 17.368 83.5824 18.136C84.969 18.8827 86.057 19.9493 86.8464 21.336C87.657 22.7227 88.0624 24.3227 88.0624 26.136C88.0624 27.9493 87.6464 29.5493 86.8144 30.936C86.0037 32.3227 84.8944 33.4 83.4864 34.168C82.0997 34.9147 80.5424 35.288 78.8144 35.288ZM78.8144 31.384C79.625 31.384 80.3824 31.192 81.0864 30.808C81.8117 30.4027 82.3877 29.8053 82.8144 29.016C83.241 28.2267 83.4544 27.2667 83.4544 26.136C83.4544 24.4507 83.0064 23.16 82.1104 22.264C81.2357 21.3467 80.1584 20.888 78.8784 20.888C77.5984 20.888 76.521 21.3467 75.6464 22.264C74.793 23.16 74.3664 24.4507 74.3664 26.136C74.3664 27.8213 74.7824 29.1227 75.6144 30.04C76.4677 30.936 77.5344 31.384 78.8144 31.384ZM98.1326 35.288C96.682 35.288 95.3806 35.032 94.2286 34.52C93.0766 33.9867 92.1593 33.272 91.4766 32.376C90.8153 31.48 90.4526 30.488 90.3886 29.4H94.9006C94.986 30.0827 95.3166 30.648 95.8926 31.096C96.49 31.544 97.226 31.768 98.1006 31.768C98.954 31.768 99.6153 31.5973 100.085 31.256C100.575 30.9147 100.821 30.4773 100.821 29.944C100.821 29.368 100.522 28.9413 99.9246 28.664C99.3486 28.3653 98.4206 28.0453 97.1406 27.704C95.818 27.384 94.73 27.0533 93.8766 26.712C93.0446 26.3707 92.3193 25.848 91.7006 25.144C91.1033 24.44 90.8046 23.4907 90.8046 22.296C90.8046 21.3147 91.082 20.4187 91.6366 19.608C92.2126 18.7973 93.0233 18.1573 94.0686 17.688C95.1353 17.2187 96.3833 16.984 97.8126 16.984C99.9246 16.984 101.61 17.5173 102.869 18.584C104.127 19.6293 104.821 21.048 104.949 22.84H100.661C100.597 22.136 100.298 21.5813 99.7646 21.176C99.2526 20.7493 98.5593 20.536 97.6846 20.536C96.874 20.536 96.2446 20.6853 95.7966 20.984C95.37 21.2827 95.1566 21.6987 95.1566 22.232C95.1566 22.8293 95.4553 23.288 96.0526 23.608C96.65 23.9067 97.578 24.216 98.8366 24.536C100.117 24.856 101.173 25.1867 102.005 25.528C102.837 25.8693 103.551 26.4027 104.149 27.128C104.767 27.832 105.087 28.7707 105.109 29.944C105.109 30.968 104.821 31.8853 104.245 32.696C103.69 33.5067 102.879 34.1467 101.813 34.616C100.767 35.064 99.5406 35.288 98.1326 35.288ZM114.002 20.952V29.528C114.002 30.1253 114.141 30.5627 114.418 30.84C114.717 31.096 115.207 31.224 115.89 31.224H117.97V35H115.154C111.378 35 109.49 33.1653 109.49 29.496V20.952H107.378V17.272H109.49V12.888H114.002V17.272H117.97V20.952H114.002ZM128.136 16.984C129.459 16.984 130.622 17.2507 131.624 17.784C132.627 18.296 133.416 18.968 133.992 19.8V17.272H138.504V35.128C138.504 36.7707 138.174 38.232 137.512 39.512C136.851 40.8133 135.859 41.8373 134.536 42.584C133.214 43.352 131.614 43.736 129.736 43.736C127.219 43.736 125.15 43.1493 123.528 41.976C121.928 40.8027 121.022 39.2027 120.808 37.176H125.256C125.491 37.9867 125.992 38.6267 126.76 39.096C127.55 39.5867 128.499 39.832 129.608 39.832C130.91 39.832 131.966 39.4373 132.776 38.648C133.587 37.88 133.992 36.7067 133.992 35.128V32.376C133.416 33.208 132.616 33.9013 131.592 34.456C130.59 35.0107 129.438 35.288 128.136 35.288C126.643 35.288 125.278 34.904 124.04 34.136C122.803 33.368 121.822 32.2907 121.096 30.904C120.392 29.496 120.04 27.8853 120.04 26.072C120.04 24.28 120.392 22.6907 121.096 21.304C121.822 19.9173 122.792 18.8507 124.008 18.104C125.246 17.3573 126.622 16.984 128.136 16.984ZM133.992 26.136C133.992 25.048 133.779 24.12 133.352 23.352C132.926 22.5627 132.35 21.9653 131.624 21.56C130.899 21.1333 130.12 20.92 129.288 20.92C128.456 20.92 127.688 21.1227 126.984 21.528C126.28 21.9333 125.704 22.5307 125.256 23.32C124.83 24.088 124.616 25.0053 124.616 26.072C124.616 27.1387 124.83 28.0773 125.256 28.888C125.704 29.6773 126.28 30.2853 126.984 30.712C127.71 31.1387 128.478 31.352 129.288 31.352C130.12 31.352 130.899 31.1493 131.624 30.744C132.35 30.3173 132.926 29.72 133.352 28.952C133.779 28.1627 133.992 27.224 133.992 26.136ZM147.36 20.024C147.936 19.0853 148.683 18.3493 149.6 17.816C150.539 17.2827 151.605 17.016 152.8 17.016V21.72H151.616C150.208 21.72 149.141 22.0507 148.416 22.712C147.712 23.3733 147.36 24.5253 147.36 26.168V35H142.88V17.272H147.36V20.024ZM172.297 25.752C172.297 26.392 172.255 26.968 172.169 27.48H159.209C159.316 28.76 159.764 29.7627 160.553 30.488C161.343 31.2133 162.313 31.576 163.465 31.576C165.129 31.576 166.313 30.8613 167.017 29.432H171.849C171.337 31.1387 170.356 32.5467 168.905 33.656C167.455 34.744 165.673 35.288 163.561 35.288C161.855 35.288 160.319 34.9147 158.953 34.168C157.609 33.4 156.553 32.3227 155.785 30.936C155.039 29.5493 154.665 27.9493 154.665 26.136C154.665 24.3013 155.039 22.6907 155.785 21.304C156.532 19.9173 157.577 18.8507 158.921 18.104C160.265 17.3573 161.812 16.984 163.561 16.984C165.247 16.984 166.751 17.3467 168.073 18.072C169.417 18.7973 170.452 19.832 171.177 21.176C171.924 22.4987 172.297 24.024 172.297 25.752ZM167.657 24.472C167.636 23.32 167.22 22.4027 166.409 21.72C165.599 21.016 164.607 20.664 163.433 20.664C162.324 20.664 161.385 21.0053 160.617 21.688C159.871 22.3493 159.412 23.2773 159.241 24.472H167.657ZM183.279 35.224C181.722 35.224 180.314 34.9573 179.055 34.424C177.818 33.8907 176.837 33.1227 176.111 32.12C175.386 31.1173 175.013 29.9333 174.991 28.568H179.791C179.855 29.4853 180.175 30.2107 180.751 30.744C181.349 31.2773 182.159 31.544 183.183 31.544C184.229 31.544 185.05 31.2987 185.647 30.808C186.245 30.296 186.543 29.6347 186.543 28.824C186.543 28.1627 186.341 27.6187 185.935 27.192C185.53 26.7653 185.018 26.4347 184.399 26.2C183.802 25.944 182.97 25.6667 181.903 25.368C180.453 24.9413 179.269 24.5253 178.351 24.12C177.455 23.6933 176.677 23.064 176.015 22.232C175.375 21.3787 175.055 20.248 175.055 18.84C175.055 17.5173 175.386 16.3653 176.047 15.384C176.709 14.4027 177.637 13.656 178.831 13.144C180.026 12.6107 181.391 12.344 182.927 12.344C185.231 12.344 187.098 12.9093 188.527 14.04C189.978 15.1493 190.778 16.7067 190.927 18.712H185.999C185.957 17.944 185.626 17.3147 185.007 16.824C184.41 16.312 183.61 16.056 182.607 16.056C181.733 16.056 181.029 16.28 180.495 16.728C179.983 17.176 179.727 17.8267 179.727 18.68C179.727 19.2773 179.919 19.7787 180.303 20.184C180.709 20.568 181.199 20.888 181.775 21.144C182.373 21.3787 183.205 21.656 184.271 21.976C185.722 22.4027 186.906 22.8293 187.823 23.256C188.741 23.6827 189.53 24.3227 190.191 25.176C190.853 26.0293 191.183 27.1493 191.183 28.536C191.183 29.7307 190.874 30.84 190.255 31.864C189.637 32.888 188.73 33.7093 187.535 34.328C186.341 34.9253 184.922 35.224 183.279 35.224ZM211.707 38.936L208.315 34.872C207.377 35.1067 206.417 35.224 205.435 35.224C203.345 35.224 201.425 34.7333 199.675 33.752C197.926 32.7707 196.539 31.416 195.515 29.688C194.491 27.9387 193.979 25.9653 193.979 23.768C193.979 21.592 194.491 19.64 195.515 17.912C196.539 16.1627 197.926 14.7973 199.675 13.816C201.425 12.8347 203.345 12.344 205.435 12.344C207.547 12.344 209.467 12.8347 211.195 13.816C212.945 14.7973 214.321 16.1627 215.323 17.912C216.347 19.64 216.859 21.592 216.859 23.768C216.859 25.752 216.433 27.5653 215.579 29.208C214.747 30.8293 213.606 32.152 212.155 33.176L217.275 38.936H211.707ZM198.587 23.768C198.587 25.2613 198.875 26.5733 199.451 27.704C200.027 28.8347 200.827 29.7093 201.851 30.328C202.897 30.9253 204.091 31.224 205.435 31.224C206.779 31.224 207.963 30.9253 208.987 30.328C210.011 29.7093 210.811 28.8347 211.387 27.704C211.963 26.5733 212.251 25.2613 212.251 23.768C212.251 22.2747 211.963 20.9733 211.387 19.864C210.811 18.7333 210.011 17.8693 208.987 17.272C207.963 16.6747 206.779 16.376 205.435 16.376C204.091 16.376 202.897 16.6747 201.851 17.272C200.827 17.8693 200.027 18.7333 199.451 19.864C198.875 20.9733 198.587 22.2747 198.587 23.768ZM224.735 31.448H232.095V35H220.255V12.664H224.735V31.448Z" fill="#939093"/>
</svg>
